<svg width="100%" height="100%" id="svg" viewBox="0 0 1440 690" xmlns="http://www.w3.org/2000/svg" class="transition duration-300 ease-in-out delay-150"><path d="M 0,700 C 0,700 0,233 0,233 C 175.06666666666666,215.8 350.1333333333333,198.6 512,183 C 673.8666666666667,167.4 822.5333333333333,153.4 975,162 C 1127.4666666666667,170.6 1283.7333333333333,201.8 1440,233 C 1440,233 1440,700 1440,700 Z" stroke="none" stroke-width="0" fill="#28a745" fill-opacity="0.53" class="transition-all duration-300 ease-in-out delay-150 path-0"></path><path d="M 0,700 C 0,700 0,466 0,466 C 196.13333333333333,501.33333333333337 392.26666666666665,536.6666666666667 526,530 C 659.7333333333333,523.3333333333333 731.0666666666667,474.66666666666663 873,457 C 1014.9333333333333,439.33333333333337 1227.4666666666667,452.6666666666667 1440,466 C 1440,466 1440,700 1440,700 Z" stroke="none" stroke-width="0" fill="#28a745" fill-opacity="1" class="transition-all duration-300 ease-in-out delay-150 path-1"></path></svg>